<svg xmlns="http://www.w3.org/2000/svg" width="74" height="75" viewBox="0 0 74 75">
    <g fill="none" fill-rule="nonzero">
        <path fill="#FFF" d="M56.33 75h17.556l-1.808-7.258h-2.02l2.41-24.194h-14.72l2.41 24.194h-2.02L56.33 75zm8.778-25.904l-3.118-3.128h6.236l-3.118 3.128zm-4.493-1.086l3.287 3.297v7.967h2.412v-7.967L69.6 48.01l-1.966 19.732h-1.32v-6.048h-2.412v6.048h-1.32L60.615 48.01zm-.594 22.151h10.174l.603 2.42h-11.38l.603-2.42zM33.76 24.194c0 .668-.54 1.21-1.206 1.21a1.208 1.208 0 0 1-1.206-1.21c0-.668.54-1.21 1.206-1.21.666 0 1.206.542 1.206 1.21zM21.703 24.194c0 .668-.54 1.21-1.206 1.21a1.208 1.208 0 0 1-1.206-1.21c0-.668.54-1.21 1.206-1.21.666 0 1.206.542 1.206 1.21z"/>
        <path fill="#FFF" d="M46.786 45.783l-11.82-3.165v-2.12a13.316 13.316 0 0 0 4.607-7.938c2.852-.477 5.038-2.953 5.038-5.947v-9.486a14.393 14.393 0 0 0 3.49-4.488l.872-1.752h-3.65a4.1 4.1 0 0 1-3.586-2.117A16.995 16.995 0 0 0 26.88 0a16.89 16.89 0 0 0-13.193 6.301 9.91 9.91 0 0 0-5.247 8.786v11.526c0 2.994 2.186 5.47 5.038 5.948a13.317 13.317 0 0 0 4.608 7.938v2.12L6.265 45.783C2.577 46.769 0 50.133 0 53.963V75h53.05V53.962c0-3.83-2.576-7.193-6.264-8.18zm-23.345 1.944a3.601 3.601 0 0 0-.533 1.87c0 .687.202 1.322.533 1.87l-2.944 1.182v-6.104l2.944 1.182zm4.29 1.87a1.21 1.21 0 0 1-1.206 1.21 1.21 1.21 0 0 1 0-2.42 1.21 1.21 0 0 1 1.206 1.21zm-1.967 3.544c.245.054.5.085.761.085.262 0 .517-.031.762-.085l3.57 1.43-4.332 14.899-4.33-14.898 3.569-1.43zm6.79-.492l-2.944-1.182a3.598 3.598 0 0 0 .533-1.87c0-.686-.202-1.322-.533-1.87l2.944-1.182v6.104zm7.234-22.63v-6.811c1.4.5 2.412 1.831 2.412 3.406a3.621 3.621 0 0 1-2.412 3.405zm2.412-8.214a5.96 5.96 0 0 0-2.412-1.117v-.84a14.107 14.107 0 0 0 2.412-1.046v3.003zM15.007 8.341l.238-.12.247-.31A14.495 14.495 0 0 1 26.88 2.42a14.586 14.586 0 0 1 12.75 7.527 6.518 6.518 0 0 0 5.26 3.347 11.794 11.794 0 0 1-9.573 4.852c-1.735 0-3.468-.214-5.15-.636l-1.558-.391a4.225 4.225 0 0 0-3.892-2.602h-.603v2.42h.603c.997 0 1.808.813 1.808 1.814a1.806 1.806 0 0 1-1.808 1.815h-.279a11.206 11.206 0 0 1-7.934-3.298l-.83-.832v-.71h-2.411v4.962a5.975 5.975 0 0 0-2.412 1.117v-6.717a7.505 7.505 0 0 1 4.156-6.746zm-4.156 18.272a3.623 3.623 0 0 1 2.412-3.406v6.811a3.62 3.62 0 0 1-2.412-3.405zm4.823 3.629V19.744c1.584 1.34 3.439 2.326 5.458 2.832a13.6 13.6 0 0 0 3.306.408h.279a4.19 4.19 0 0 0 2.985-1.24 4.214 4.214 0 0 0 1.129-2.076l.751.189a23.6 23.6 0 0 0 5.735.708c.697 0 1.385-.051 2.06-.148v9.825c0 6.002-4.869 10.887-10.852 10.887-5.982 0-10.85-4.885-10.85-10.887zm10.851 13.306c2.172 0 4.218-.537 6.029-1.468v1.86l-5.267 2.112a3.597 3.597 0 0 0-.762-.084c-.26 0-.516.031-.761.084l-5.267-2.113V42.08a13.142 13.142 0 0 0 6.028 1.468zM2.411 53.962a6.052 6.052 0 0 1 4.476-5.844l11.199-2.995v11.1l1.86-.747 4.972 17.105H12.057V56.855H9.646V72.58H2.41V53.962zM50.64 72.581h-7.235V56.855h-2.411V72.58H28.133l4.972-17.105 1.86.746V45.123l11.199 2.997a6.05 6.05 0 0 1 4.476 5.842v18.619z"/>
        <path fill="#FFF" d="M26.525 37.5c3.324 0 6.029-2.714 6.029-6.048h-2.411c0 2-1.624 3.629-3.618 3.629a3.628 3.628 0 0 1-3.617-3.63h-2.411c0 3.335 2.705 6.049 6.028 6.049z"/>
        <g fill="#724CF9">
            <path d="M70.085 41.678l-4.977-1.86-4.977 1.86.144-5.527-3.172-4.328 4.998-1.547 3.007-4.606 3.007 4.606 4.998 1.547-3.172 4.328zM20.497 54.435H19.29V43.548l-7.217 2.618 1.189 14.318 4.589 2.003-1.065 4.271 4.916 7.032h4.822zM40.977 46.166l-7.217-2.618v10.887h-1.206L26.525 73.79h4.823l4.916-7.032-1.065-4.271 4.59-2.003z"/>
        </g>
    </g>
</svg>
