<svg xmlns="http://www.w3.org/2000/svg" width="189" height="283" viewBox="0 0 189 283">
    <g fill="#FFF" fill-rule="evenodd" opacity=".031">
        <path d="M4.39 193.373l73.636-42.81a8 8 0 0 1 10.961 2.937l42.542 74.198a8 8 0 0 1-2.92 10.895l-73.635 42.81a8 8 0 0 1-10.961-2.937L1.47 204.269a8 8 0 0 1 2.92-10.896zM127.39 107.277l31.201-18.139a8 8 0 0 1 10.961 2.937l18.042 31.467a8 8 0 0 1-2.92 10.895l-31.2 18.14a8 8 0 0 1-10.961-2.938l-18.042-31.466a8 8 0 0 1 2.92-10.896zM51.05 9.26l13.88-8.07a8 8 0 0 1 10.962 2.937l8.041 14.025a8 8 0 0 1-2.919 10.895l-13.88 8.07a8 8 0 0 1-10.961-2.937L48.13 20.155a8 8 0 0 1 2.92-10.896z"/>
    </g>
</svg>
