<svg xmlns="http://www.w3.org/2000/svg" width="167" height="181" viewBox="0 0 167 181">
    <g fill="#FFF" fill-rule="evenodd" opacity=".031">
        <path d="M4.37 60.894l31.196-18.107a8 8 0 0 1 10.953 2.935l18.032 31.4a8 8 0 0 1-2.921 10.903l-31.196 18.108a8 8 0 0 1-10.953-2.935l-18.032-31.4A8 8 0 0 1 4.37 60.893zM81.37 38.776l64.104-37.209a8 8 0 0 1 10.954 2.935l37.032 64.486a8 8 0 0 1-2.922 10.903l-64.104 37.21a8 8 0 0 1-10.953-2.936L78.449 49.68a8 8 0 0 1 2.921-10.903zM53.37 151.378l13.875-8.053A8 8 0 0 1 78.2 146.26l8.032 13.986a8 8 0 0 1-2.922 10.903l-13.875 8.054a8 8 0 0 1-10.953-2.935l-8.032-13.987a8 8 0 0 1 2.921-10.903z"/>
    </g>
</svg>
