<svg xmlns="http://www.w3.org/2000/svg" width="75" height="75" viewBox="0 0 75 75">
    <g fill="none" fill-rule="nonzero">
        <path fill="#FFF" d="M72.58 62.903V20.565a6.056 6.056 0 0 0-6.048-6.049H52.016C52.016 6.511 45.505 0 37.5 0c-8.005 0-14.516 6.511-14.516 14.516H8.468a6.056 6.056 0 0 0-6.049 6.049v42.338H0v6.049A6.056 6.056 0 0 0 6.048 75h62.904A6.056 6.056 0 0 0 75 68.952v-6.049h-2.42zM52.017 16.935h14.516c2 0 3.63 1.629 3.63 3.63v42.338h-2.42V21.774a2.422 2.422 0 0 0-2.42-2.42H52.017v-2.419zM25.403 31.452V14.516c0-6.67 5.427-12.097 12.097-12.097s12.097 5.427 12.097 12.097v7.258h-2.42v-7.258c0-5.336-4.341-9.677-9.677-9.677-5.336 0-9.677 4.341-9.677 9.677v14.516h2.419v-7.258h14.516v2.42h7.258v-2.42h13.307v41.13H9.677v-41.13h13.307v9.678h2.42zm4.839-16.936A7.265 7.265 0 0 1 37.5 7.258a7.265 7.265 0 0 1 7.258 7.258H30.242zm14.516 2.42v2.419H30.242v-2.42h14.516zM29.032 65.322h16.936v1.21c0 .666-.544 1.209-1.21 1.209H30.242c-.666 0-1.21-.543-1.21-1.21v-1.21zM4.84 20.565c0-2.001 1.628-3.63 3.629-3.63h14.516v2.42H9.677a2.422 2.422 0 0 0-2.419 2.42v41.128h-2.42V20.565zM72.58 68.952c0 2-1.629 3.629-3.63 3.629H6.049c-2 0-3.629-1.629-3.629-3.63v-3.628h24.194v1.21c0 2 1.628 3.628 3.629 3.628h14.516c2 0 3.63-1.628 3.63-3.629v-1.21H72.58v3.63z"/>
        <path fill="#724CF9" d="M37.935 60.83l-.573-.31A31.075 31.075 0 0 1 21 33.127V32.12L37.935 23l16.936 9.119v1.007a31.076 31.076 0 0 1-16.362 27.395l-.574.309z"/>
        <path fill="#FFF" d="M28.23 42.25a.8.8 0 0 1-.23-.525.8.8 0 0 1 .23-.525l1.078-1.05c.307-.3.769-.3 1.077 0l.077.075 4.23 4.425c.154.15.385.15.539 0l10.307-10.425h.077c.308-.3.77-.3 1.077 0l1.077 1.05c.308.3.308.75 0 1.05l-12.307 12.45a.707.707 0 0 1-.539.225.707.707 0 0 1-.538-.225l-6-6.3-.154-.225z"/>
    </g>
</svg>
