<svg xmlns="http://www.w3.org/2000/svg" width="58" height="49" viewBox="0 0 58 49">
    <g fill="#FFF" fill-rule="nonzero" opacity=".104">
        <path d="M18.434 22.346a15.243 15.243 0 0 0-4.217-.617c-2.13 0-3.909.488-5.287 1.085 1.329-4.872 4.522-13.279 10.882-14.226A1.512 1.512 0 0 0 21.045 7.5l1.39-4.979a1.513 1.513 0 0 0-1.25-1.905c-.469-.064-.947-.097-1.421-.097-7.635 0-15.197 7.98-18.387 19.404-1.873 6.703-2.422 16.78 2.191 23.123 2.582 3.549 6.348 5.444 11.195 5.633l.059.002c5.98 0 11.283-4.033 12.896-9.806.964-3.451.528-7.07-1.228-10.194-1.737-3.088-4.597-5.339-8.056-6.335zM55.868 28.682c-1.737-3.089-4.598-5.34-8.056-6.336a15.242 15.242 0 0 0-4.217-.617c-2.13 0-3.91.488-5.288 1.085 1.33-4.872 4.522-13.279 10.884-14.226A1.513 1.513 0 0 0 50.423 7.5l1.39-4.979a1.513 1.513 0 0 0-1.25-1.905 10.532 10.532 0 0 0-1.421-.097c-7.635 0-15.196 7.98-18.388 19.404-1.872 6.703-2.421 16.78 2.193 23.124 2.581 3.548 6.348 5.444 11.194 5.633l.06.001c5.98 0 11.283-4.032 12.896-9.805a13.351 13.351 0 0 0-1.23-10.194z"/>
    </g>
</svg>
