<svg xmlns="http://www.w3.org/2000/svg" width="59" height="85" viewBox="0 0 59 85">
    <g fill="none" fill-rule="nonzero">
        <path fill="#FFF" d="M51.84 30.649H37.87v2.786H51.84a4.19 4.19 0 0 1 4.19 4.18v5.609c-1.17-.885-2.611-1.43-4.19-1.43H7.142a4.19 4.19 0 0 1-4.19-4.18 4.19 4.19 0 0 1 4.19-4.179h15.365V30.65H7.142c-3.85 0-6.984 3.125-6.984 6.966v40.4c0 3.841 3.133 6.967 6.984 6.967H51.84c3.851 0 6.984-3.125 6.984-6.966V37.615c0-3.841-3.133-6.966-6.984-6.966zm4.19 40.401H39.267c-3.85 0-6.984-3.125-6.984-6.966 0-3.84 3.133-6.965 6.984-6.965H56.03V71.05zm0-16.717H39.267c-5.392 0-9.778 4.375-9.778 9.752 0 5.376 4.386 9.752 9.778 9.752H56.03v4.179a4.19 4.19 0 0 1-4.19 4.18H7.142a4.19 4.19 0 0 1-4.19-4.18V43.184a6.96 6.96 0 0 0 4.19 1.396h44.697a4.19 4.19 0 0 1 4.19 4.18v5.573z"/>
        <path fill="#FFF" d="M7.142 36.222h44.697v2.786H7.142z"/>
        <ellipse cx="29.491" cy="26.47" fill="#724CF9" rx="11.174" ry="11.145"/>
        <path fill="#FFF" d="M30.887 30.649h-2.793c-.77 0-1.397-.626-1.397-1.393h-2.794a4.19 4.19 0 0 0 4.19 4.18v1.393h2.794v-1.394a4.19 4.19 0 0 0 4.19-4.18 4.19 4.19 0 0 0-4.19-4.179h-2.793c-.77 0-1.397-.625-1.397-1.393s.627-1.393 1.397-1.393h2.793c.77 0 1.397.626 1.397 1.393h2.794a4.19 4.19 0 0 0-4.19-4.18v-1.392h-2.794v1.393a4.19 4.19 0 0 0-4.19 4.18 4.19 4.19 0 0 0 4.19 4.18h2.793c.77 0 1.397.625 1.397 1.392 0 .768-.627 1.393-1.397 1.393zM35.078 64.084a4.19 4.19 0 0 0 4.19 4.18 4.19 4.19 0 0 0 4.19-4.18 4.19 4.19 0 0 0-4.19-4.18 4.19 4.19 0 0 0-4.19 4.18zm5.587 0a1.397 1.397 0 0 1-2.794 0 1.396 1.396 0 0 1 2.794 0z"/>
        <path fill="#724CF9" d="M28.094 0h2.794v11.145h-2.794zM37.871 4.18h2.794v11.145h-2.794zM18.317 6.966h2.794v8.359h-2.794z"/>
    </g>
</svg>
